# xmcd
#
# Track frame offsets:
#	150
#	20099
#	39200
#	57743
#	76176
#	93985
#	114050
#	132260
#	150885
#	168040
#	187913
#	205650
#
# Disc length: 3051 seconds
#
# Revision: 0
# Processed by: cddbd v1.5.2PL0 Copyright (c) Steve Scherf et al.
# Submitted via: EasyCDDAExtractor 12.0.7.1
#
DISCID=820be90c
DTITLE=Various Artist - ซูเปอร์สตาร์ลูกทุ่ง 1 สุดมันสุดม่วน
DYEAR=2552
DGENRE=Country
TTITLE0=ไผ่ พงศธร/คนบ้านเดียวกัน - คนบ้านเดียวกัน
TTITLE1=ต่าย อรทัย/ต.จ.ว.มอหก - ต.จ.ว.มอหก
TTITLE2=พี สะเดิด/เอาปลาข่อน - เอาปลาข่อน
TTITLE3=ตั๊กแตน ชลดา/จิรักหรือจิหลอก - จิรักหรือจิหลอก
TTITLE4=ไมค์ ภิรมย์พร/สู้อย่างสิงห์ - สู้อย่างสิงห์
TTITLE5=ศิริพร อำไพพงษ์/คึดฮอดกอดบ่ได้ - คึดฮอดกอดบ่ได้
TTITLE6=ไผ่ พงศธร/สู้เด้อพี่น้อง - สู้เด้อพี่น้อง
TTITLE7=ต่าย อรทัย/ดาวเต้น ม.ต้น - ดาวเต้น ม.ต้น
TTITLE8=ไมค์ ภิรมย์พร/จดหมายผิดซอง - จดหมายผิดซอง
TTITLE9=ตั๊กแตน ชลดา/นักร้องงานเลี้ยง  - นักร้องงานเลี้ยง 
TTITLE10=พี สะเดิด/จี่หอย - จี่หอย
TTITLE11=ศิริพร อำไพพงษ์/โลโซโบว์รัก - โลโซโบว์รัก
EXTD=
EXTT0=
EXTT1=
EXTT2=
EXTT3=
EXTT4=
EXTT5=
EXTT6=
EXTT7=
EXTT8=
EXTT9=
EXTT10=
EXTT11=
PLAYORDER=
